<svg width="17" height="16" viewBox="0 0 17 16" fill="none" xmlns="http://www.w3.org/2000/svg">
<path d="M13.9145 11.9312C13.6197 11.2331 13.192 10.5989 12.6551 10.0641C12.1198 9.52767 11.4858 9.10001 10.7879 8.80469C10.7817 8.80156 10.7754 8.8 10.7692 8.79688C11.7426 8.09375 12.3754 6.94844 12.3754 5.65625C12.3754 3.51562 10.641 1.78125 8.50041 1.78125C6.35978 1.78125 4.62541 3.51562 4.62541 5.65625C4.62541 6.94844 5.25822 8.09375 6.23166 8.79844C6.22541 8.80156 6.21916 8.80312 6.21291 8.80625C5.51291 9.10156 4.88478 9.525 4.34572 10.0656C3.80933 10.6009 3.38166 11.235 3.08634 11.9328C2.79622 12.616 2.63975 13.3485 2.62541 14.0906C2.62499 14.1073 2.62791 14.1239 2.63401 14.1394C2.6401 14.1549 2.64924 14.1691 2.66089 14.181C2.67254 14.193 2.68646 14.2025 2.70184 14.2089C2.71721 14.2154 2.73372 14.2188 2.75041 14.2188H3.68791C3.75666 14.2188 3.81134 14.1641 3.81291 14.0969C3.84416 12.8906 4.32853 11.7609 5.18478 10.9047C6.07072 10.0188 7.24728 9.53125 8.50041 9.53125C9.75353 9.53125 10.9301 10.0188 11.816 10.9047C12.6723 11.7609 13.1567 12.8906 13.1879 14.0969C13.1895 14.1656 13.2442 14.2188 13.3129 14.2188H14.2504C14.2671 14.2188 14.2836 14.2154 14.299 14.2089C14.3143 14.2025 14.3283 14.193 14.3399 14.181C14.3516 14.1691 14.3607 14.1549 14.3668 14.1394C14.3729 14.1239 14.3758 14.1073 14.3754 14.0906C14.3598 13.3437 14.2051 12.6172 13.9145 11.9312V11.9312ZM8.50041 8.34375C7.78322 8.34375 7.10822 8.06406 6.60041 7.55625C6.09259 7.04844 5.81291 6.37344 5.81291 5.65625C5.81291 4.93906 6.09259 4.26406 6.60041 3.75625C7.10822 3.24844 7.78322 2.96875 8.50041 2.96875C9.21759 2.96875 9.89259 3.24844 10.4004 3.75625C10.9082 4.26406 11.1879 4.93906 11.1879 5.65625C11.1879 6.37344 10.9082 7.04844 10.4004 7.55625C9.89259 8.06406 9.21759 8.34375 8.50041 8.34375Z" fill="white"/>
</svg>
